<?xml version="1.0" encoding="UTF-8"?>
<svg width="120" height="123" enable-background="new 0 0 766.8 1055" version="1.1" viewBox="0 0 766.8 1055" xml:space="preserve" xmlns="http://www.w3.org/2000/svg">
<style type="text/css">
	.st0{fill:#F15A24;}
</style>
<path class="st0" d="m694.7 497.8c29.3-51.1 60.3-113.7 60.3-181.3 0-174.7-114.5-316.5-255.6-316.5h-414.2c-46.6 0-85.2 47.8-85.2 105.5v844c0 57.7 38.6 105.5 85.2 105.5h426c141.1 0 255.6-141.8 255.6-316.5 0-95.6-17.5-183-72.1-240.7zm-222.4 394.1h-390.7l132.6-323.8h385.5c3.3 0-127.4 323.8-127.4 323.8zm127.4-434.5h-385.5l-132.6-323.8h390.6c0.1 0 130.8 323.8 127.5 323.8z"/>
</svg>
