<svg version="1.1" width="140" height="130"id="Layer_1" xmlns="http://www.w3.org/2000/svg" xmlns:xlink="http://www.w3.org/1999/xlink" x="0px" y="0px"
	 viewBox="0 0 1296 1844.7" style="enable-background:new 0 0 1296 1844.7;" xml:space="preserve">
<style type="text/css">
	.st0{fill:#F15A24;}
</style>
<path class="st0" d="M1174.2,870.5c49.5-89.4,101.9-198.9,101.9-317.1c0-305.5-193.5-553.4-432-553.4H144C65.2,0,0,83.6,0,184.5
	v1475.8c0,100.9,65.2,184.5,144,184.5h720c238.5,0,432-247.9,432-553.4C1296,1124.1,1266.4,971.4,1174.2,870.5z M798.2,1559.5H138
	l224.1-566.1h651.5C1019.2,993.4,798.2,1559.5,798.2,1559.5z M1013.6,799.7H362.1L138,233.6h660.2
	C798.2,233.6,1019.2,799.7,1013.6,799.7z"/>
</svg>
