<?xml version="1.0" encoding="UTF-8"?>
<svg width="480pt" height="480pt" viewBox="0 0 480 480" xmlns="http://www.w3.org/2000/svg" xmlns:xlink="http://www.w3.org/1999/xlink">
<linearGradient id="a">
<stop stop-color="#fff200" offset="0"/>
<stop stop-color="#cd118c" offset="1"/>
</linearGradient>
<linearGradient id="i" x1="-24" x2="504.06" y1="240" y2="240" gradientUnits="userSpaceOnUse" xlink:href="#a"/>
<linearGradient id="h" x1="-24" x2="504.06" y1="244" y2="244" gradientUnits="userSpaceOnUse" xlink:href="#a"/>
<linearGradient id="f" x1="-24" x2="504.06" y1="104" y2="104" gradientUnits="userSpaceOnUse" xlink:href="#a"/>
<linearGradient id="g" x1="-24" x2="504.06" y1="376" y2="376" gradientUnits="userSpaceOnUse" xlink:href="#a"/>
<path d="m376 272c-6.3555-0.015625-12.703 0.56641-18.953 1.7344l-150.78-150.78c1.1719-6.25 1.75-12.594 1.7344-18.953-0.066406-57.41-46.59-103.93-104-104-9.1172-0.019531-18.191 1.1758-26.992 3.5586l-13.289 3.6406 44.883 44.883-11.93 44.598-44.598 11.922-44.875-44.883-3.6289 13.289c-2.3867 8.7969-3.5898 17.875-3.5703 26.992 0.066406 57.41 46.59 103.93 104 104 6.3594 0.015625 12.703-0.5625 18.953-1.7344l150.79 150.78c-1.1719 6.25-1.7539 12.594-1.7383 18.953 0.066406 57.41 46.59 103.93 104 104 9.1172 0.019531 18.195-1.1758 26.992-3.5586l13.289-3.6328-44.879-44.879 11.926-44.602 44.602-11.93 44.879 44.883 3.6328-13.289c2.3828-8.7969 3.5781-17.875 3.5586-26.992-0.066406-57.41-46.59-103.93-104-104zm87.602 112.46-30.891-30.906-62.445 16.715-16.715 62.445 30.906 30.891c-2.793 0.26172-5.6016 0.39844-8.457 0.39844-48.578-0.058594-87.941-39.422-88-88-0.03125-6.6055 0.72266-13.195 2.25-19.625l1.0625-4.375-163.31-163.31-4.375 1.0664c-6.4297 1.5234-13.016 2.2773-19.625 2.2461-48.578-0.058594-87.941-39.422-88-88 0-2.8398 0.13672-5.6641 0.40234-8.457l30.887 30.906 62.449-16.715 16.711-62.445-30.906-30.891c2.793-0.26172 5.6016-0.39844 8.457-0.39844 48.578 0.058594 87.941 39.422 88 88 0.03125 6.6094-0.72266 13.195-2.2461 19.625l-1.0664 4.375 163.31 163.31 4.375-1.0625c6.4297-1.5273 13.02-2.2812 19.625-2.25 48.578 0.058594 87.941 39.422 88 88 0 2.8398-0.13672 5.6641-0.39844 8.457z" fill="url(#i)"/>
<path d="m140.69 184 163.31 163.31 43.312-43.312-163.31-163.31zm163.31 140.69-140.69-140.69 20.688-20.688 140.69 140.69z" fill="url(#h)"/>
<path d="m457.1 72c-0.35938-0.90234-0.74609-1.8086-1.1367-2.7031l16.207-16.207-45.254-45.258-16.211 16.207c-0.89453-0.39062-1.7969-0.79687-2.7031-1.1367v-22.902h-64v22.902c-0.90234 0.36328-1.8086 0.74609-2.7031 1.1367l-16.207-16.207-45.258 45.258 16.207 16.207c-0.39062 0.89453-0.79687 1.8008-1.1328 2.7031h-22.906v64h22.906c0.35938 0.90234 0.74219 1.8086 1.1328 2.7031l-16.207 16.211 45.258 45.254 16.207-16.168c0.89453 0.39062 1.8008 0.80078 2.7031 1.1367v22.863h64v-22.902c0.90625-0.36328 1.8086-0.74609 2.7031-1.1367l16.211 16.207 45.254-45.254-16.168-16.211c0.39062-0.89453 0.80078-1.8008 1.1367-2.7031h22.863v-64zm6.9023 48h-18.398l-1.7773 5.6016c-1.2266 3.8242-2.7773 7.5352-4.6406 11.094l-2.6953 5.1992 13.031 13.035-22.625 22.621-13.031-13.031-5.1992 2.6953c-3.5586 1.8633-7.2695 3.4141-11.094 4.6406l-5.5703 1.7461v18.398h-32v-18.398l-5.5977-1.7773c-3.8281-1.2266-7.5391-2.7812-11.098-4.6406l-5.1992-2.6953-13.031 13.031-22.625-22.625 13.031-13.031-2.6953-5.1992c-1.8594-3.5586-3.4141-7.2695-4.6406-11.098l-1.7422-5.5664h-18.402v-32h18.402l1.7734-5.6016c1.2266-3.8242 2.7812-7.5352 4.6406-11.094l2.6953-5.1992-13.047-13.016 22.625-22.625 13.031 13.031 5.1992-2.6953c3.5547-1.8594 7.2617-3.4141 11.082-4.6484l5.5977-1.7539v-18.398h32v18.398l5.6016 1.7773c3.8242 1.2305 7.5391 2.7891 11.102 4.6484l5.2031 2.6953 13.031-13.031 22.621 22.625-13.031 13.031 2.6953 5.1992c1.8633 3.5586 3.4141 7.2734 4.6406 11.098l1.7773 5.5977h18.359z" fill="url(#f)"/>
<path d="m376 62.055c-23.164 0-41.945 18.781-41.945 41.945s18.781 41.945 41.945 41.945 41.945-18.781 41.945-41.945c-0.027343-23.152-18.789-41.918-41.945-41.945zm0 67.891c-14.328 0-25.945-11.617-25.945-25.945s11.617-25.945 25.945-25.945 25.945 11.617 25.945 25.945c-0.019531 14.32-11.625 25.926-25.945 25.945z" fill="url(#f)"/>
<g fill="url(#g)">
<path d="m185.1 344c-0.35938-0.90234-0.74609-1.8086-1.1367-2.7031l16.207-16.207-45.254-45.258-16.211 16.207c-0.89453-0.39062-1.7969-0.79687-2.7031-1.1367v-22.902h-64v22.902c-0.90234 0.36328-1.8086 0.74609-2.7031 1.1367l-16.207-16.207-45.258 45.258 16.207 16.207c-0.39062 0.89453-0.79687 1.8008-1.1328 2.7031h-22.906v64h22.906c0.35938 0.90234 0.74219 1.8086 1.1328 2.7031l-16.207 16.211 45.258 45.254 16.207-16.168c0.89453 0.39062 1.8008 0.80078 2.7031 1.1367v22.863h64v-22.902c0.90625-0.36328 1.8086-0.74609 2.7031-1.1367l16.211 16.207 45.254-45.254-16.168-16.211c0.39062-0.89453 0.80078-1.8008 1.1367-2.7031h22.863v-64zm6.9023 48h-18.398l-1.7773 5.6016c-1.2266 3.8242-2.7773 7.5352-4.6406 11.094l-2.6953 5.1992 13.031 13.035-22.625 22.621-13.031-13.031-5.1992 2.6953c-3.5586 1.8633-7.2695 3.4141-11.094 4.6406l-5.5703 1.7461v18.398h-32v-18.398l-5.5977-1.7773c-3.8281-1.2266-7.5391-2.7812-11.098-4.6406l-5.1992-2.6953-13.016 13.047-22.625-22.621 13.031-13.035-2.6953-5.1992c-1.8594-3.5547-3.4141-7.2617-4.6406-11.078l-1.7578-5.6016h-18.402v-32h18.402l1.7734-5.6016c1.2266-3.8242 2.7812-7.5352 4.6406-11.094l2.6953-5.1992-13.047-13.016 22.625-22.625 13.031 13.031 5.1992-2.6953c3.5625-1.8633 7.2773-3.418 11.105-4.6484l5.5742-1.7539v-18.398h32v18.398l5.6016 1.7773c3.8242 1.2305 7.5391 2.7891 11.102 4.6484l5.2031 2.6953 13.031-13.031 22.621 22.625-13.031 13.031 2.6953 5.1992c1.8633 3.5586 3.4141 7.2734 4.6406 11.098l1.7773 5.5977h18.359z"/>
<path d="m104 334.05c-23.164 0-41.945 18.781-41.945 41.945s18.781 41.945 41.945 41.945 41.945-18.781 41.945-41.945c-0.027343-23.152-18.789-41.918-41.945-41.945zm0 67.891c-14.328 0-25.945-11.617-25.945-25.945s11.617-25.945 25.945-25.945 25.945 11.617 25.945 25.945c-0.019531 14.32-11.625 25.926-25.945 25.945z"/>
</g>
</svg>
